<?xml version="1.0" standalone="no"?>
<!DOCTYPE svg PUBLIC "-//W3C//DTD SVG 20010904//EN"
 "http://www.w3.org/TR/2001/REC-SVG-20010904/DTD/svg10.dtd">
<svg version="1.0" xmlns="http://www.w3.org/2000/svg"
 width="684.000000pt" height="660.000000pt" viewBox="0 0 684.000000 660.000000"
 preserveAspectRatio="xMidYMid meet">
<metadata>
Created by potrace 1.15, written by Peter Selinger 2001-2017
</metadata>
<g transform="translate(0.000000,660.000000) scale(0.100000,-0.100000)"
fill="#000000" stroke="none">
<path d="M250 6015 l0 -455 455 0 455 0 0 455 0 455 -455 0 -455 0 0 -455z
m780 0 l0 -325 -325 0 -325 0 0 325 0 325 325 0 325 0 0 -325z"/>
<path d="M510 6015 l0 -195 195 0 195 0 0 195 0 195 -195 0 -195 0 0 -195z"/>
<path d="M1420 6405 l0 -65 -65 0 -65 0 0 -65 0 -65 65 0 65 0 0 -65 0 -65 65
0 65 0 0 195 0 195 -65 0 -65 0 0 -65z"/>
<path d="M1810 6405 l0 -65 -65 0 -65 0 0 -65 0 -65 130 0 130 0 0 -65 0 -65
65 0 65 0 0 -65 0 -65 -130 0 -130 0 0 65 0 65 -65 0 -65 0 0 -65 0 -65 -65 0
-65 0 0 -65 0 -65 130 0 130 0 0 -130 0 -130 -65 0 -65 0 0 65 0 65 -65 0 -65
0 0 -65 0 -65 -65 0 -65 0 0 130 0 130 -65 0 -65 0 0 -195 0 -195 -260 0 -260
0 0 -65 0 -65 -65 0 -65 0 0 -65 0 -65 -65 0 -65 0 0 -65 0 -65 -65 0 -65 0 0
130 0 130 -65 0 -65 0 0 -130 0 -130 65 0 65 0 0 -65 0 -65 -65 0 -65 0 0
-195 0 -195 65 0 65 0 0 -65 0 -65 -65 0 -65 0 0 -130 0 -130 65 0 65 0 0 -65
0 -65 -65 0 -65 0 0 -65 0 -65 65 0 65 0 0 -325 0 -325 -65 0 -65 0 0 -65 0
-65 65 0 65 0 0 65 0 65 65 0 65 0 0 -195 0 -195 -65 0 -65 0 0 -65 0 -65 -65
0 -65 0 0 -195 0 -195 65 0 65 0 0 -130 0 -130 -65 0 -65 0 0 -65 0 -65 65 0
65 0 0 65 0 65 65 0 65 0 0 -130 0 -130 65 0 65 0 0 -65 0 -65 -65 0 -65 0 0
-65 0 -65 -65 0 -65 0 0 -130 0 -130 -65 0 -65 0 0 -65 0 -65 195 0 195 0 0
65 0 65 65 0 65 0 0 65 0 65 -130 0 -130 0 0 65 0 65 130 0 130 0 0 195 0 195
-65 0 -65 0 0 65 0 65 130 0 130 0 0 -325 0 -325 130 0 130 0 0 -65 0 -65 -65
0 -65 0 0 -65 0 -65 65 0 65 0 0 65 0 65 65 0 65 0 0 -325 0 -325 65 0 65 0 0
-130 0 -130 65 0 65 0 0 -65 0 -65 -65 0 -65 0 0 -65 0 -65 65 0 65 0 0 65 0
65 65 0 65 0 0 130 0 130 65 0 65 0 0 -195 0 -195 195 0 195 0 0 65 0 65 -130
0 -130 0 0 130 0 130 65 0 65 0 0 -65 0 -65 130 0 130 0 0 65 0 65 65 0 65 0
0 -130 0 -130 -65 0 -65 0 0 -65 0 -65 390 0 390 0 0 65 0 65 65 0 65 0 0 -65
0 -65 65 0 65 0 0 65 0 65 65 0 65 0 0 -65 0 -65 65 0 65 0 0 65 0 65 65 0 65
0 0 -65 0 -65 65 0 65 0 0 65 0 65 195 0 195 0 0 -65 0 -65 130 0 130 0 0 65
0 65 130 0 130 0 0 -65 0 -65 130 0 130 0 0 65 0 65 65 0 65 0 0 -65 0 -65 65
0 65 0 0 65 0 65 -65 0 -65 0 0 65 0 65 130 0 130 0 0 -65 0 -65 65 0 65 0 0
-65 0 -65 260 0 260 0 0 65 0 65 -260 0 -260 0 0 130 0 130 -65 0 -65 0 0 65
0 65 130 0 130 0 0 -130 0 -130 130 0 130 0 0 130 0 130 65 0 65 0 0 130 0
130 65 0 65 0 0 -390 0 -390 195 0 195 0 0 65 0 65 -65 0 -65 0 0 65 0 65 -65
0 -65 0 0 130 0 130 65 0 65 0 0 -65 0 -65 65 0 65 0 0 65 0 65 -65 0 -65 0 0
65 0 65 -65 0 -65 0 0 130 0 130 -130 0 -130 0 0 195 0 195 65 0 65 0 0 65 0
65 65 0 65 0 0 -130 0 -130 65 0 65 0 0 -65 0 -65 65 0 65 0 0 65 0 65 -65 0
-65 0 0 195 0 195 65 0 65 0 0 130 0 130 -130 0 -130 0 0 65 0 65 65 0 65 0 0
65 0 65 -65 0 -65 0 0 130 0 130 -65 0 -65 0 0 65 0 65 65 0 65 0 0 65 0 65
65 0 65 0 0 -65 0 -65 65 0 65 0 0 65 0 65 -65 0 -65 0 0 65 0 65 65 0 65 0 0
325 0 325 -65 0 -65 0 0 -260 0 -260 -65 0 -65 0 0 65 0 65 -65 0 -65 0 0 65
0 65 65 0 65 0 0 195 0 195 65 0 65 0 0 130 0 130 -65 0 -65 0 0 130 0 130
-65 0 -65 0 0 130 0 130 65 0 65 0 0 -65 0 -65 130 0 130 0 0 130 0 130 -65 0
-65 0 0 130 0 130 65 0 65 0 0 65 0 65 -65 0 -65 0 0 65 0 65 -130 0 -130 0 0
-65 0 -65 130 0 130 0 0 -65 0 -65 -65 0 -65 0 0 -65 0 -65 -65 0 -65 0 0 -65
0 -65 -65 0 -65 0 0 65 0 65 -130 0 -130 0 0 195 0 195 65 0 65 0 0 -130 0
-130 65 0 65 0 0 260 0 260 -65 0 -65 0 0 65 0 65 -130 0 -130 0 0 -65 0 -65
-65 0 -65 0 0 195 0 195 -65 0 -65 0 0 -195 0 -195 -130 0 -130 0 0 130 0 130
65 0 65 0 0 130 0 130 -130 0 -130 0 0 -65 0 -65 -65 0 -65 0 0 130 0 130 -65
0 -65 0 0 195 0 195 65 0 65 0 0 -130 0 -130 65 0 65 0 0 -65 0 -65 65 0 65 0
0 65 0 65 -65 0 -65 0 0 65 0 65 130 0 130 0 0 -130 0 -130 65 0 65 0 0 65 0
65 65 0 65 0 0 195 0 195 -65 0 -65 0 0 -65 0 -65 -130 0 -130 0 0 65 0 65
-195 0 -195 0 0 -65 0 -65 -65 0 -65 0 0 65 0 65 -325 0 -325 0 0 -65 0 -65
-65 0 -65 0 0 65 0 65 -65 0 -65 0 0 -65 0 -65 -65 0 -65 0 0 65 0 65 -195 0
-195 0 0 -65 0 -65 -65 0 -65 0 0 65 0 65 -130 0 -130 0 0 -130 0 -130 -130 0
-130 0 0 -130 0 -130 -65 0 -65 0 0 195 0 195 130 0 130 0 0 65 0 65 -130 0
-130 0 0 -65 0 -65 -65 0 -65 0 0 65 0 65 -65 0 -65 0 0 -65 0 -65 -65 0 -65
0 0 65 0 65 -130 0 -130 0 0 -65z m520 -195 l0 -130 -130 0 -130 0 0 65 0 65
65 0 65 0 0 65 0 65 65 0 65 0 0 -130z m1300 0 l0 -130 -130 0 -130 0 0 -65 0
-65 -130 0 -130 0 0 -260 0 -260 -65 0 -65 0 0 -65 0 -65 65 0 65 0 0 -65 0
-65 65 0 65 0 0 65 0 65 325 0 325 0 0 -65 0 -65 -325 0 -325 0 0 -65 0 -65
195 0 195 0 0 -65 0 -65 -130 0 -130 0 0 -65 0 -65 -130 0 -130 0 0 65 0 65
-65 0 -65 0 0 -65 0 -65 -65 0 -65 0 0 65 0 65 -130 0 -130 0 0 -130 0 -130
-65 0 -65 0 0 65 0 65 -65 0 -65 0 0 65 0 65 -65 0 -65 0 0 -65 0 -65 -65 0
-65 0 0 -130 0 -130 65 0 65 0 0 65 0 65 65 0 65 0 0 -195 0 -195 65 0 65 0 0
-130 0 -130 -65 0 -65 0 0 -130 0 -130 65 0 65 0 0 65 0 65 130 0 130 0 0 -65
0 -65 -130 0 -130 0 0 -65 0 -65 65 0 65 0 0 -65 0 -65 195 0 195 0 0 130 0
130 65 0 65 0 0 65 0 65 -130 0 -130 0 0 65 0 65 195 0 195 0 0 65 0 65 130 0
130 0 0 65 0 65 195 0 195 0 0 65 0 65 -65 0 -65 0 0 130 0 130 -65 0 -65 0 0
-65 0 -65 -65 0 -65 0 0 65 0 65 65 0 65 0 0 65 0 65 65 0 65 0 0 65 0 65 65
0 65 0 0 65 0 65 65 0 65 0 0 -130 0 -130 -65 0 -65 0 0 -65 0 -65 65 0 65 0
0 -65 0 -65 65 0 65 0 0 -65 0 -65 65 0 65 0 0 130 0 130 -65 0 -65 0 0 130 0
130 65 0 65 0 0 130 0 130 -65 0 -65 0 0 65 0 65 130 0 130 0 0 65 0 65 -65 0
-65 0 0 130 0 130 -65 0 -65 0 0 -130 0 -130 -195 0 -195 0 0 130 0 130 65 0
65 0 0 -65 0 -65 65 0 65 0 0 195 0 195 -65 0 -65 0 0 -65 0 -65 -65 0 -65 0
0 65 0 65 65 0 65 0 0 130 0 130 65 0 65 0 0 65 0 65 65 0 65 0 0 -65 0 -65
65 0 65 0 0 65 0 65 65 0 65 0 0 -65 0 -65 65 0 65 0 0 -65 0 -65 65 0 65 0 0
-65 0 -65 65 0 65 0 0 -65 0 -65 -65 0 -65 0 0 -130 0 -130 65 0 65 0 0 65 0
65 65 0 65 0 0 -65 0 -65 65 0 65 0 0 65 0 65 65 0 65 0 0 -65 0 -65 -65 0
-65 0 0 -130 0 -130 65 0 65 0 0 -130 0 -130 -65 0 -65 0 0 65 0 65 -65 0 -65
0 0 -65 0 -65 -130 0 -130 0 0 -130 0 -130 130 0 130 0 0 -325 0 -325 65 0 65
0 0 -65 0 -65 65 0 65 0 0 65 0 65 65 0 65 0 0 -65 0 -65 65 0 65 0 0 65 0 65
65 0 65 0 0 -130 0 -130 130 0 130 0 0 -65 0 -65 65 0 65 0 0 -65 0 -65 -65 0
-65 0 0 65 0 65 -65 0 -65 0 0 -65 0 -65 -130 0 -130 0 0 -260 0 -260 -65 0
-65 0 0 65 0 65 -65 0 -65 0 0 -65 0 -65 -65 0 -65 0 0 195 0 195 -65 0 -65 0
0 65 0 65 -65 0 -65 0 0 -65 0 -65 -65 0 -65 0 0 130 0 130 -130 0 -130 0 0
-65 0 -65 65 0 65 0 0 -130 0 -130 65 0 65 0 0 -65 0 -65 65 0 65 0 0 -65 0
-65 65 0 65 0 0 -195 0 -195 -65 0 -65 0 0 -130 0 -130 130 0 130 0 0 130 0
130 65 0 65 0 0 130 0 130 130 0 130 0 0 -130 0 -130 130 0 130 0 0 65 0 65
65 0 65 0 0 65 0 65 65 0 65 0 0 -130 0 -130 -65 0 -65 0 0 -130 0 -130 65 0
65 0 0 65 0 65 65 0 65 0 0 -130 0 -130 -130 0 -130 0 0 -65 0 -65 65 0 65 0
0 -65 0 -65 -65 0 -65 0 0 -65 0 -65 -130 0 -130 0 0 65 0 65 -65 0 -65 0 0
-195 0 -195 65 0 65 0 0 65 0 65 65 0 65 0 0 -65 0 -65 -65 0 -65 0 0 -65 0
-65 130 0 130 0 0 65 0 65 65 0 65 0 0 -65 0 -65 65 0 65 0 0 -65 0 -65 -65 0
-65 0 0 65 0 65 -65 0 -65 0 0 -65 0 -65 -130 0 -130 0 0 65 0 65 -65 0 -65 0
0 -195 0 -195 -65 0 -65 0 0 -65 0 -65 65 0 65 0 0 -130 0 -130 -130 0 -130 0
0 -130 0 -130 -65 0 -65 0 0 -65 0 -65 -65 0 -65 0 0 130 0 130 65 0 65 0 0
260 0 260 65 0 65 0 0 65 0 65 65 0 65 0 0 130 0 130 65 0 65 0 0 65 0 65 -65
0 -65 0 0 325 0 325 -65 0 -65 0 0 -455 0 -455 -65 0 -65 0 0 65 0 65 -325 0
-325 0 0 65 0 65 -65 0 -65 0 0 -65 0 -65 -65 0 -65 0 0 65 0 65 -195 0 -195
0 0 65 0 65 -130 0 -130 0 0 65 0 65 130 0 130 0 0 -65 0 -65 130 0 130 0 0
65 0 65 -65 0 -65 0 0 65 0 65 65 0 65 0 0 65 0 65 -195 0 -195 0 0 65 0 65
-65 0 -65 0 0 -65 0 -65 -65 0 -65 0 0 65 0 65 -130 0 -130 0 0 130 0 130
-130 0 -130 0 0 65 0 65 -65 0 -65 0 0 65 0 65 65 0 65 0 0 65 0 65 -130 0
-130 0 0 -195 0 -195 65 0 65 0 0 -130 0 -130 65 0 65 0 0 65 0 65 65 0 65 0
0 -65 0 -65 -65 0 -65 0 0 -65 0 -65 130 0 130 0 0 -65 0 -65 130 0 130 0 0
-65 0 -65 -65 0 -65 0 0 -130 0 -130 65 0 65 0 0 -65 0 -65 325 0 325 0 0 -65
0 -65 390 0 390 0 0 -65 0 -65 -65 0 -65 0 0 -65 0 -65 -65 0 -65 0 0 -130 0
-130 -65 0 -65 0 0 -65 0 -65 -65 0 -65 0 0 -65 0 -65 195 0 195 0 0 65 0 65
65 0 65 0 0 -195 0 -195 -130 0 -130 0 0 65 0 65 -65 0 -65 0 0 -65 0 -65
-195 0 -195 0 0 65 0 65 -65 0 -65 0 0 65 0 65 -65 0 -65 0 0 -65 0 -65 -65 0
-65 0 0 -65 0 -65 -65 0 -65 0 0 65 0 65 -65 0 -65 0 0 -130 0 -130 -65 0 -65
0 0 65 0 65 -65 0 -65 0 0 65 0 65 -65 0 -65 0 0 65 0 65 65 0 65 0 0 -65 0
-65 130 0 130 0 0 65 0 65 195 0 195 0 0 65 0 65 65 0 65 0 0 65 0 65 -65 0
-65 0 0 65 0 65 65 0 65 0 0 65 0 65 -65 0 -65 0 0 65 0 65 -65 0 -65 0 0 65
0 65 -65 0 -65 0 0 -65 0 -65 -195 0 -195 0 0 65 0 65 -65 0 -65 0 0 65 0 65
65 0 65 0 0 -65 0 -65 130 0 130 0 0 65 0 65 -65 0 -65 0 0 65 0 65 -65 0 -65
0 0 65 0 65 -65 0 -65 0 0 -65 0 -65 -65 0 -65 0 0 65 0 65 -65 0 -65 0 0 -65
0 -65 -65 0 -65 0 0 -65 0 -65 -65 0 -65 0 0 -65 0 -65 -65 0 -65 0 0 -65 0
-65 -130 0 -130 0 0 -130 0 -130 130 0 130 0 0 65 0 65 65 0 65 0 0 65 0 65
65 0 65 0 0 65 0 65 65 0 65 0 0 65 0 65 65 0 65 0 0 -130 0 -130 65 0 65 0 0
-130 0 -130 -130 0 -130 0 0 -65 0 -65 -65 0 -65 0 0 -130 0 -130 -65 0 -65 0
0 195 0 195 -65 0 -65 0 0 -195 0 -195 -65 0 -65 0 0 -65 0 -65 -65 0 -65 0 0
65 0 65 -65 0 -65 0 0 -65 0 -65 -65 0 -65 0 0 65 0 65 -65 0 -65 0 0 -65 0
-65 -65 0 -65 0 0 65 0 65 -65 0 -65 0 0 195 0 195 65 0 65 0 0 -130 0 -130
130 0 130 0 0 130 0 130 -65 0 -65 0 0 65 0 65 -130 0 -130 0 0 65 0 65 -65 0
-65 0 0 65 0 65 -65 0 -65 0 0 65 0 65 -65 0 -65 0 0 65 0 65 65 0 65 0 0 65
0 65 -65 0 -65 0 0 65 0 65 65 0 65 0 0 65 0 65 -65 0 -65 0 0 65 0 65 -195 0
-195 0 0 -65 0 -65 -65 0 -65 0 0 130 0 130 -65 0 -65 0 0 65 0 65 65 0 65 0
0 65 0 65 -65 0 -65 0 0 65 0 65 65 0 65 0 0 -65 0 -65 130 0 130 0 0 -130 0
-130 130 0 130 0 0 65 0 65 -65 0 -65 0 0 130 0 130 -65 0 -65 0 0 130 0 130
-65 0 -65 0 0 130 0 130 -65 0 -65 0 0 130 0 130 65 0 65 0 0 65 0 65 -65 0
-65 0 0 130 0 130 -65 0 -65 0 0 65 0 65 65 0 65 0 0 260 0 260 -65 0 -65 0 0
65 0 65 130 0 130 0 0 -65 0 -65 130 0 130 0 0 65 0 65 -65 0 -65 0 0 65 0 65
-195 0 -195 0 0 65 0 65 65 0 65 0 0 65 0 65 65 0 65 0 0 65 0 65 65 0 65 0 0
-65 0 -65 260 0 260 0 0 65 0 65 -130 0 -130 0 0 65 0 65 130 0 130 0 0 65 0
65 65 0 65 0 0 -65 0 -65 65 0 65 0 0 130 0 130 65 0 65 0 0 -130 0 -130 -65
0 -65 0 0 -65 0 -65 -65 0 -65 0 0 -65 0 -65 65 0 65 0 0 -65 0 -65 65 0 65 0
0 65 0 65 65 0 65 0 0 65 0 65 65 0 65 0 0 65 0 65 65 0 65 0 0 65 0 65 -65 0
-65 0 0 195 0 195 130 0 130 0 0 65 0 65 65 0 65 0 0 -65 0 -65 65 0 65 0 0
-65 0 -65 65 0 65 0 0 -65 0 -65 65 0 65 0 0 195 0 195 65 0 65 0 0 -65 0 -65
65 0 65 0 0 65 0 65 65 0 65 0 0 65 0 65 65 0 65 0 0 130 0 130 195 0 195 0 0
-130z m-650 -65 l0 -65 -65 0 -65 0 0 65 0 65 65 0 65 0 0 -65z m650 -520 l0
-195 -195 0 -195 0 0 195 0 195 195 0 195 0 0 -195z m1950 -520 l0 -195 -130
0 -130 0 0 65 0 65 65 0 65 0 0 130 0 130 65 0 65 0 0 -195z m390 130 l0 -65
-65 0 -65 0 0 65 0 65 65 0 65 0 0 -65z m-780 -390 l0 -65 -65 0 -65 0 0 65 0
65 65 0 65 0 0 -65z m390 -195 l0 -130 65 0 65 0 0 65 0 65 65 0 65 0 0 -65 0
-65 65 0 65 0 0 -195 0 -195 130 0 130 0 0 -130 0 -130 -65 0 -65 0 0 65 0 65
-195 0 -195 0 0 130 0 130 -195 0 -195 0 0 65 0 65 -65 0 -65 0 0 -65 0 -65
-65 0 -65 0 0 130 0 130 130 0 130 0 0 65 0 65 65 0 65 0 0 65 0 65 65 0 65 0
0 -130z m-2730 -65 l0 -65 -65 0 -65 0 0 65 0 65 65 0 65 0 0 -65z m390 0 l0
-65 65 0 65 0 0 -65 0 -65 -65 0 -65 0 0 -65 0 -65 -65 0 -65 0 0 -65 0 -65
-65 0 -65 0 0 65 0 65 -195 0 -195 0 0 65 0 65 -65 0 -65 0 0 65 0 65 65 0 65
0 0 -65 0 -65 195 0 195 0 0 65 0 65 65 0 65 0 0 65 0 65 65 0 65 0 0 -65z
m3250 -130 l0 -65 -65 0 -65 0 0 65 0 65 65 0 65 0 0 -65z m-130 -780 l0 -65
-65 0 -65 0 0 -130 0 -130 -65 0 -65 0 0 195 0 195 130 0 130 0 0 -65z m-390
-390 l0 -195 -195 0 -195 0 0 195 0 195 195 0 195 0 0 -195z m260 -325 l0
-130 65 0 65 0 0 -65 0 -65 -130 0 -130 0 0 195 0 195 65 0 65 0 0 -130z m130
-845 l0 -65 -65 0 -65 0 0 -195 0 -195 -65 0 -65 0 0 65 0 65 -65 0 -65 0 0
65 0 65 65 0 65 0 0 130 0 130 130 0 130 0 0 -65z m-2730 -1170 l0 -195 -195
0 -195 0 0 195 0 195 195 0 195 0 0 -195z m2340 0 l0 -195 -195 0 -195 0 0
195 0 195 195 0 195 0 0 -195z m-2860 -130 l0 -65 -65 0 -65 0 0 65 0 65 65 0
65 0 0 -65z m-260 -260 l0 -195 65 0 65 0 0 -65 0 -65 -195 0 -195 0 0 65 0
65 65 0 65 0 0 195 0 195 65 0 65 0 0 -195z m1040 -260 l0 -65 -65 0 -65 0 0
65 0 65 65 0 65 0 0 -65z"/>
<path d="M4280 6145 l0 -65 -65 0 -65 0 0 -65 0 -65 65 0 65 0 0 -130 0 -130
65 0 65 0 0 -65 0 -65 65 0 65 0 0 65 0 65 -65 0 -65 0 0 65 0 65 130 0 130 0
0 65 0 65 -130 0 -130 0 0 130 0 130 -65 0 -65 0 0 -65z"/>
<path d="M2200 5755 l0 -65 -65 0 -65 0 0 -130 0 -130 130 0 130 0 0 65 0 65
65 0 65 0 0 -65 0 -65 65 0 65 0 0 65 0 65 -65 0 -65 0 0 65 0 65 -65 0 -65 0
0 65 0 65 -65 0 -65 0 0 -65z m130 -130 l0 -65 -65 0 -65 0 0 65 0 65 65 0 65
0 0 -65z"/>
<path d="M2850 5625 l0 -65 65 0 65 0 0 65 0 65 -65 0 -65 0 0 -65z"/>
<path d="M4800 5430 l0 -130 65 0 65 0 0 130 0 130 -65 0 -65 0 0 -130z"/>
<path d="M4540 5365 l0 -65 -65 0 -65 0 0 -390 0 -390 65 0 65 0 0 -130 0
-130 65 0 65 0 0 65 0 65 65 0 65 0 0 65 0 65 -130 0 -130 0 0 65 0 65 65 0
65 0 0 65 0 65 -65 0 -65 0 0 195 0 195 65 0 65 0 0 130 0 130 -65 0 -65 0 0
-65z"/>
<path d="M2070 5170 l0 -130 -65 0 -65 0 0 -65 0 -65 -65 0 -65 0 0 -65 0 -65
65 0 65 0 0 65 0 65 130 0 130 0 0 65 0 65 130 0 130 0 0 -65 0 -65 65 0 65 0
0 65 0 65 130 0 130 0 0 65 0 65 65 0 65 0 0 -65 0 -65 65 0 65 0 0 65 0 65
-65 0 -65 0 0 65 0 65 -130 0 -130 0 0 -65 0 -65 -130 0 -130 0 0 65 0 65
-195 0 -195 0 0 -130z"/>
<path d="M770 4845 l0 -65 65 0 65 0 0 65 0 65 -65 0 -65 0 0 -65z"/>
<path d="M1030 4845 l0 -65 65 0 65 0 0 -65 0 -65 -65 0 -65 0 0 -65 0 -65
-65 0 -65 0 0 -130 0 -130 130 0 130 0 0 65 0 65 65 0 65 0 0 65 0 65 65 0 65
0 0 65 0 65 65 0 65 0 0 -65 0 -65 65 0 65 0 0 -65 0 -65 -130 0 -130 0 0 -65
0 -65 195 0 195 0 0 -130 0 -130 -65 0 -65 0 0 65 0 65 -65 0 -65 0 0 -65 0
-65 -65 0 -65 0 0 65 0 65 -65 0 -65 0 0 -130 0 -130 65 0 65 0 0 -130 0 -130
-195 0 -195 0 0 65 0 65 65 0 65 0 0 65 0 65 -65 0 -65 0 0 65 0 65 65 0 65 0
0 65 0 65 -130 0 -130 0 0 -65 0 -65 -130 0 -130 0 0 -65 0 -65 195 0 195 0 0
-65 0 -65 -130 0 -130 0 0 -130 0 -130 -65 0 -65 0 0 -130 0 -130 65 0 65 0 0
-130 0 -130 195 0 195 0 0 -65 0 -65 -65 0 -65 0 0 -65 0 -65 65 0 65 0 0 65
0 65 65 0 65 0 0 -325 0 -325 65 0 65 0 0 260 0 260 130 0 130 0 0 -65 0 -65
65 0 65 0 0 65 0 65 65 0 65 0 0 130 0 130 195 0 195 0 0 -65 0 -65 65 0 65 0
0 130 0 130 -65 0 -65 0 0 65 0 65 65 0 65 0 0 65 0 65 65 0 65 0 0 -65 0 -65
65 0 65 0 0 -65 0 -65 65 0 65 0 0 -65 0 -65 65 0 65 0 0 65 0 65 65 0 65 0 0
-130 0 -130 130 0 130 0 0 65 0 65 130 0 130 0 0 -65 0 -65 -65 0 -65 0 0
-195 0 -195 130 0 130 0 0 -65 0 -65 65 0 65 0 0 130 0 130 -65 0 -65 0 0 65
0 65 65 0 65 0 0 65 0 65 65 0 65 0 0 -130 0 -130 65 0 65 0 0 -65 0 -65 65 0
65 0 0 -65 0 -65 -130 0 -130 0 0 -65 0 -65 65 0 65 0 0 -195 0 -195 65 0 65
0 0 195 0 195 65 0 65 0 0 -65 0 -65 65 0 65 0 0 -65 0 -65 65 0 65 0 0 -65 0
-65 -65 0 -65 0 0 -65 0 -65 260 0 260 0 0 130 0 130 -65 0 -65 0 0 65 0 65
65 0 65 0 0 130 0 130 -65 0 -65 0 0 -65 0 -65 -65 0 -65 0 0 -65 0 -65 -65 0
-65 0 0 130 0 130 65 0 65 0 0 65 0 65 -65 0 -65 0 0 130 0 130 65 0 65 0 0
65 0 65 -65 0 -65 0 0 -65 0 -65 -65 0 -65 0 0 65 0 65 -65 0 -65 0 0 65 0 65
65 0 65 0 0 65 0 65 -65 0 -65 0 0 65 0 65 -65 0 -65 0 0 195 0 195 -65 0 -65
0 0 -130 0 -130 -65 0 -65 0 0 65 0 65 -65 0 -65 0 0 65 0 65 65 0 65 0 0 130
0 130 65 0 65 0 0 -65 0 -65 65 0 65 0 0 65 0 65 260 0 260 0 0 -65 0 -65 195
0 195 0 0 -195 0 -195 65 0 65 0 0 130 0 130 65 0 65 0 0 65 0 65 65 0 65 0 0
65 0 65 -65 0 -65 0 0 -65 0 -65 -65 0 -65 0 0 65 0 65 -130 0 -130 0 0 65 0
65 -130 0 -130 0 0 65 0 65 -65 0 -65 0 0 -65 0 -65 -195 0 -195 0 0 -65 0
-65 -65 0 -65 0 0 65 0 65 -65 0 -65 0 0 65 0 65 -195 0 -195 0 0 -65 0 -65
-65 0 -65 0 0 -130 0 -130 130 0 130 0 0 130 0 130 65 0 65 0 0 -195 0 -195
-260 0 -260 0 0 130 0 130 -65 0 -65 0 0 -65 0 -65 -65 0 -65 0 0 -195 0 -195
-130 0 -130 0 0 -65 0 -65 -65 0 -65 0 0 65 0 65 -65 0 -65 0 0 65 0 65 -65 0
-65 0 0 -65 0 -65 -65 0 -65 0 0 65 0 65 -65 0 -65 0 0 -65 0 -65 -65 0 -65 0
0 130 0 130 130 0 130 0 0 65 0 65 -195 0 -195 0 0 65 0 65 -65 0 -65 0 0 65
0 65 130 0 130 0 0 -65 0 -65 65 0 65 0 0 65 0 65 65 0 65 0 0 130 0 130 -65
0 -65 0 0 -65 0 -65 -65 0 -65 0 0 195 0 195 -130 0 -130 0 0 65 0 65 -65 0
-65 0 0 65 0 65 -130 0 -130 0 0 -65 0 -65 -65 0 -65 0 0 130 0 130 -130 0
-130 0 0 -65z m130 -390 l0 -65 -65 0 -65 0 0 65 0 65 65 0 65 0 0 -65z m520
-520 l0 -65 65 0 65 0 0 -65 0 -65 65 0 65 0 0 -130 0 -130 -130 0 -130 0 0
-195 0 -195 -65 0 -65 0 0 65 0 65 -65 0 -65 0 0 130 0 130 65 0 65 0 0 65 0
65 130 0 130 0 0 65 0 65 -65 0 -65 0 0 65 0 65 -65 0 -65 0 0 65 0 65 65 0
65 0 0 -65z m-390 -650 l0 -195 -195 0 -195 0 0 195 0 195 195 0 195 0 0 -195z
m2340 0 l0 -195 -195 0 -195 0 0 195 0 195 195 0 195 0 0 -195z m260 65 l0
-130 195 0 195 0 0 -65 0 -65 -130 0 -130 0 0 -65 0 -65 -65 0 -65 0 0 -65 0
-65 -65 0 -65 0 0 130 0 130 65 0 65 0 0 65 0 65 -65 0 -65 0 0 130 0 130 65
0 65 0 0 -130z m-1820 -65 l0 -65 65 0 65 0 0 65 0 65 65 0 65 0 0 -65 0 -65
-65 0 -65 0 0 -65 0 -65 -130 0 -130 0 0 -65 0 -65 -65 0 -65 0 0 -130 0 -130
-65 0 -65 0 0 130 0 130 65 0 65 0 0 65 0 65 65 0 65 0 0 130 0 130 65 0 65 0
0 -65z m910 -130 l0 -65 -65 0 -65 0 0 65 0 65 65 0 65 0 0 -65z m-1560 -260
l0 -65 -65 0 -65 0 0 65 0 65 65 0 65 0 0 -65z m2860 0 l0 -65 -65 0 -65 0 0
65 0 65 65 0 65 0 0 -65z m130 -260 l0 -65 65 0 65 0 0 -65 0 -65 65 0 65 0 0
-65 0 -65 -130 0 -130 0 0 65 0 65 -65 0 -65 0 0 65 0 65 -65 0 -65 0 0 65 0
65 130 0 130 0 0 -65z"/>
<path d="M1030 3285 l0 -65 65 0 65 0 0 65 0 65 -65 0 -65 0 0 -65z"/>
<path d="M3370 3285 l0 -65 65 0 65 0 0 65 0 65 -65 0 -65 0 0 -65z"/>
<path d="M3890 4455 l0 -65 65 0 65 0 0 -65 0 -65 65 0 65 0 0 65 0 65 -65 0
-65 0 0 65 0 65 -65 0 -65 0 0 -65z"/>
<path d="M640 4260 l0 -130 65 0 65 0 0 130 0 130 -65 0 -65 0 0 -130z"/>
<path d="M4280 4325 l0 -65 65 0 65 0 0 65 0 65 -65 0 -65 0 0 -65z"/>
<path d="M2070 2635 l0 -195 65 0 65 0 0 -65 0 -65 -130 0 -130 0 0 65 0 65
-65 0 -65 0 0 -130 0 -130 -65 0 -65 0 0 65 0 65 -65 0 -65 0 0 -65 0 -65 65
0 65 0 0 -65 0 -65 65 0 65 0 0 65 0 65 65 0 65 0 0 -195 0 -195 -130 0 -130
0 0 65 0 65 -65 0 -65 0 0 65 0 65 -65 0 -65 0 0 -65 0 -65 -130 0 -130 0 0
-65 0 -65 130 0 130 0 0 -65 0 -65 -130 0 -130 0 0 -65 0 -65 130 0 130 0 0
-130 0 -130 65 0 65 0 0 130 0 130 65 0 65 0 0 -65 0 -65 65 0 65 0 0 -65 0
-65 -65 0 -65 0 0 -65 0 -65 65 0 65 0 0 -65 0 -65 65 0 65 0 0 -65 0 -65 65
0 65 0 0 -130 0 -130 65 0 65 0 0 130 0 130 -65 0 -65 0 0 65 0 65 -65 0 -65
0 0 130 0 130 65 0 65 0 0 65 0 65 130 0 130 0 0 65 0 65 -130 0 -130 0 0 -65
0 -65 -130 0 -130 0 0 65 0 65 65 0 65 0 0 65 0 65 130 0 130 0 0 65 0 65 -65
0 -65 0 0 65 0 65 195 0 195 0 0 65 0 65 -130 0 -130 0 0 65 0 65 65 0 65 0 0
130 0 130 130 0 130 0 0 65 0 65 -65 0 -65 0 0 65 0 65 -65 0 -65 0 0 -130 0
-130 -65 0 -65 0 0 195 0 195 -65 0 -65 0 0 -195z m-390 -910 l0 -65 -65 0
-65 0 0 -65 0 -65 -65 0 -65 0 0 65 0 65 65 0 65 0 0 65 0 65 65 0 65 0 0 -65z"/>
<path d="M3110 2635 l0 -65 65 0 65 0 0 -65 0 -65 65 0 65 0 0 65 0 65 -65 0
-65 0 0 65 0 65 -65 0 -65 0 0 -65z"/>
<path d="M5190 2570 l0 -130 65 0 65 0 0 65 0 65 65 0 65 0 0 -65 0 -65 65 0
65 0 0 -65 0 -65 130 0 130 0 0 65 0 65 -130 0 -130 0 0 65 0 65 -65 0 -65 0
0 65 0 65 -130 0 -130 0 0 -130z"/>
<path d="M1030 2505 l0 -65 65 0 65 0 0 65 0 65 -65 0 -65 0 0 -65z"/>
<path d="M510 2375 l0 -65 65 0 65 0 0 65 0 65 -65 0 -65 0 0 -65z"/>
<path d="M1030 2245 l0 -65 65 0 65 0 0 65 0 65 -65 0 -65 0 0 -65z"/>
<path d="M2460 2245 l0 -65 65 0 65 0 0 65 0 65 -65 0 -65 0 0 -65z"/>
<path d="M2720 2115 l0 -65 -65 0 -65 0 0 -130 0 -130 65 0 65 0 0 130 0 130
65 0 65 0 0 -130 0 -130 65 0 65 0 0 65 0 65 65 0 65 0 0 65 0 65 -130 0 -130
0 0 65 0 65 -65 0 -65 0 0 -65z"/>
<path d="M5580 2115 l0 -65 65 0 65 0 0 65 0 65 -65 0 -65 0 0 -65z"/>
<path d="M3760 1335 l0 -65 65 0 65 0 0 -65 0 -65 130 0 130 0 0 -65 0 -65
-130 0 -130 0 0 -65 0 -65 65 0 65 0 0 -65 0 -65 -65 0 -65 0 0 -65 0 -65 65
0 65 0 0 -65 0 -65 130 0 130 0 0 65 0 65 -130 0 -130 0 0 65 0 65 130 0 130
0 0 65 0 65 65 0 65 0 0 65 0 65 -65 0 -65 0 0 130 0 130 -130 0 -130 0 0 65
0 65 -130 0 -130 0 0 -65z"/>
<path d="M4410 1205 l0 -65 65 0 65 0 0 65 0 65 -65 0 -65 0 0 -65z"/>
<path d="M2460 1075 l0 -65 65 0 65 0 0 65 0 65 -65 0 -65 0 0 -65z"/>
<path d="M1810 685 l0 -65 65 0 65 0 0 65 0 65 -65 0 -65 0 0 -65z"/>
<path d="M3370 5625 l0 -65 65 0 65 0 0 65 0 65 -65 0 -65 0 0 -65z"/>
<path d="M5710 4455 l0 -65 65 0 65 0 0 65 0 65 -65 0 -65 0 0 -65z"/>
<path d="M2980 4325 l0 -65 65 0 65 0 0 65 0 65 -65 0 -65 0 0 -65z"/>
<path d="M5710 3285 l0 -65 65 0 65 0 0 65 0 65 -65 0 -65 0 0 -65z"/>
<path d="M3370 945 l0 -65 65 0 65 0 0 65 0 65 -65 0 -65 0 0 -65z"/>
<path d="M5710 945 l0 -65 65 0 65 0 0 65 0 65 -65 0 -65 0 0 -65z"/>
<path d="M5710 6015 l0 -455 455 0 455 0 0 455 0 455 -455 0 -455 0 0 -455z
m780 0 l0 -325 -325 0 -325 0 0 325 0 325 325 0 325 0 0 -325z"/>
<path d="M5970 6015 l0 -195 195 0 195 0 0 195 0 195 -195 0 -195 0 0 -195z"/>
<path d="M6360 5365 l0 -65 65 0 65 0 0 65 0 65 -65 0 -65 0 0 -65z"/>
<path d="M250 555 l0 -455 455 0 455 0 0 455 0 455 -455 0 -455 0 0 -455z
m780 0 l0 -325 -325 0 -325 0 0 325 0 325 325 0 325 0 0 -325z"/>
<path d="M510 555 l0 -195 195 0 195 0 0 195 0 195 -195 0 -195 0 0 -195z"/>
</g>
</svg>
